<svg width="1980" height="130" viewBox="0 0 1980 130" fill="none" xmlns="http://www.w3.org/2000/svg">
<path d="M1005.51 70.0775C726.785 45.5443 456.594 -0.362404 289.168 32.8887C156.981 59.1411 93.3755 77.4578 0 82.5732V129.142H1977V6.63784C1929.42 -2.11246 1784.51 -9.11271 1585.56 32.8887C1386.61 74.8902 1257.35 92.2443 1005.51 70.0775Z" fill="#C4C4C4" fill-opacity="0.2"/>
<path d="M162.874 30.1211C100.864 0.402816 40.3915 0.257138 0 3.89909V129H1980V6.63054C1943.86 -2.11014 1833.81 -9.10268 1682.71 32.8526C1531.61 74.8078 1433.43 92.1429 1242.16 70.0004C1030.47 45.4942 825.262 -0.362005 698.102 32.8526C570.943 66.0671 527.343 86.5649 415.525 83.6577C315.033 81.0451 224.884 59.8394 162.874 30.1211Z" fill="#F7B500"/>
</svg>
